<?xml version="1.0" encoding="UTF-8" standalone="no"?>
<!DOCTYPE svg PUBLIC "-//W3C//DTD SVG 1.1//EN" "http://www.w3.org/Graphics/SVG/1.1/DTD/svg11.dtd">
<svg width="100%" height="100%" viewBox="0 0 246 403" version="1.1" xmlns="http://www.w3.org/2000/svg" xmlns:xlink="http://www.w3.org/1999/xlink" xml:space="preserve" xmlns:serif="http://www.serif.com/" style="fill-rule:evenodd;clip-rule:evenodd;stroke-linejoin:round;stroke-miterlimit:2;">
    <g transform="matrix(2.317089,0,0,2.317089,165.365975,164.571214)">
        <path d="M0,-57.09L-0.276,-57.369L0,-57.09ZM0.138,-59.526C-7.795,-66.941 -18.082,-71.025 -28.829,-71.025C-52.285,-71.025 -71.368,-51.942 -71.368,-28.486C-71.368,-5.095 -52.285,13.935 -28.829,13.935C-18.012,13.935 -7.724,9.893 0.137,2.554L0.189,2.506L0.277,2.424L0.277,-0.543L-0.195,-0.075L-0.47,0.199C-7.949,7.622 -18.285,11.88 -28.829,11.88C-51.087,11.88 -69.195,-6.228 -69.195,-28.486C-69.195,-50.808 -51.087,-68.969 -28.829,-68.969C-18.241,-68.969 -7.905,-64.67 -0.473,-57.174L-0.197,-56.895L0.277,-56.418L0.277,-59.396L0.189,-59.478L0.138,-59.526Z" style="fill:white;fill-rule:nonzero;"/>
    </g>
    <g transform="matrix(2.317089,0,0,2.317089,165.686428,376.335496)">
        <path d="M0,-61.962C-7.933,-69.377 -18.22,-73.461 -28.967,-73.461C-52.423,-73.461 -71.506,-54.378 -71.506,-30.922C-71.506,-7.531 -52.423,11.499 -28.967,11.499C-18.15,11.499 -7.863,7.457 -0.001,0.118L0.05,0.07L0.138,-0.012L0.138,-2.979L-0.333,-2.511L-0.608,-2.237C-8.087,5.186 -18.424,9.444 -28.967,9.444C-51.225,9.444 -69.333,-8.664 -69.333,-30.922C-69.333,-53.244 -51.225,-71.405 -28.967,-71.405C-18.379,-71.405 -8.043,-67.106 -0.611,-59.61L-0.335,-59.331L0.138,-58.854L0.138,-61.832L0.051,-61.914L0,-61.962Z" style="fill:white;fill-rule:nonzero;"/>
    </g>
    <g transform="matrix(2.317089,0,0,2.317089,-565.766521,-1348.479494)">
        <path d="M350.005,582.248L323.421,582.248L350.005,582.248ZM350.282,581.972L323.145,581.972L323.145,666.88L325.248,666.88L325.248,625.416L350.282,625.416L350.282,623.313L325.248,623.313L325.248,584.075L350.282,584.075L350.282,581.972Z" style="fill:white;fill-rule:nonzero;"/>
    </g>
    <g transform="matrix(2.317089,0,0,2.317089,187.861892,211.113413)">
        <path d="M0,80.702L0,-2.103L-2.103,-2.103L-2.103,82.805L25.034,82.805L25.034,80.702L0,80.702Z" style="fill:white;fill-rule:nonzero;"/>
    </g>
</svg>
